# xmcd
# Track frame offsets:
# 150
# 23148
# 43622
# 63746
# 85572
# 104955
# 130278
# 164784
# 184045
# 196059
#
# Disc length: 2732 seconds
# Revision: 0
# Processed by: cddbd v1.4PL0 Copyright (c) Steve Scherf et al.
# Submitted via: VisiTrax 2.9.7.197 - For more info visit www.synapsa.com
#
DISCID=8c0aaa0a
DTITLE=Charles Brown - A life in the blues
DYEAR=1900
DGENRE=
TTITLE0=I stepped in quicksand
TTITLE1=Driftin Blues
TTITLE2=I cried last night
TTITLE3=All my life
TTITLE4=Seven long days
TTITLE5=Black night
TTITLE6=When the sun comes out
TTITLE7=Merry christmas baby
TTITLE8=Please come home for christmas
TTITLE9=Joyces boogie
EXTD=
EXTT0=
EXTT1=
EXTT2=
EXTT3=
EXTT4=
EXTT5=
EXTT6=
EXTT7=
EXTT8=
EXTT9=
PLAYORDER=
